<svg version="1.1" id="Layer_1" xmlns="http://www.w3.org/2000/svg" xmlns:xlink="http://www.w3.org/1999/xlink" x="0px" y="0px" viewBox="0 0 72.8 72.8" style="enable-background:new 0 0 72.8 72.8;" xml:space="preserve">
 <style type="text/css">
  .st0{fill:#5514B4;}
	.st1{fill:none;}
 </style>
 <g>
  <path class="st0" d="M36.3,41.5c0,4.7-3.3,7.3-8,7.3H17.7V24h9.8c4.8,0,8,2.4,8,6.9c0,2-0.9,3.9-2.4,4.9
		C34.9,36.9,36.3,38.8,36.3,41.5 M29.6,31.3c0-1.3-0.8-2.2-2.3-2.2h-3.7v4.5h3.7C28.7,33.6,29.6,32.6,29.6,31.3 M30.3,41.2
		c0-1.6-1-2.6-2.7-2.6h-4v5.2h4C29.3,43.7,30.3,42.7,30.3,41.2 M36.4,72.8c20.1,0,36.4-16.3,36.4-36.4c0-20.1-16.3-36.4-36.4-36.4
		C16.4,0.1,0.1,16.4,0.1,36.4C0.1,56.5,16.4,72.8,36.4,72.8 M36.4,68.3C18.8,68.3,4.5,54,4.5,36.4c0-17.6,14.3-31.9,31.9-31.9
		c17.6,0,31.9,14.3,31.9,31.9C68.3,54,54,68.3,36.4,68.3 M38.2,24h18.1v5.3h-6.1v19.4h-6V29.3h-6.1V24z">
  </path>
  <rect class="st1" width="72.8" height="72.8">
  </rect>
 </g>
</svg>