<svg width="113" height="36" viewBox="0 0 113 36" fill="none" xmlns="http://www.w3.org/2000/svg">
<path d="M54.8795 0V21.0783L33.8012 0H54.8795Z" fill="#0076FF"/>
<path d="M15.501 5.25708C21.1079 5.25708 24.4564 7.12648 27.2148 9.84497L23.0576 14.6418C20.7689 12.563 18.4293 11.2942 15.4609 11.2942C10.4541 11.2944 6.84593 15.4513 6.8457 20.5481V20.6389C6.84588 25.7358 10.3641 29.9727 15.4609 29.9729C18.8589 29.9729 20.938 28.614 23.2666 26.4954L27.4248 30.6926C24.3665 33.9608 20.968 36.0002 15.2412 36.0002C6.49623 36.0001 0 29.2532 0 20.718L0.00976562 20.6985V20.6184C0.00983446 12.1733 6.3763 5.25728 15.501 5.25708Z" fill="white"/>
<path d="M100.714 5.25708C106.321 5.25708 109.669 7.12648 112.428 9.84497L108.27 14.6418C105.981 12.5631 103.642 11.2942 100.674 11.2942C95.6669 11.2944 92.0588 15.4512 92.0586 20.5481V20.6389C92.0588 25.7358 95.577 29.9727 100.674 29.9729C104.072 29.9729 106.151 28.6141 108.479 26.4954L112.638 30.6926C109.579 33.9608 106.181 36.0002 100.454 36.0002C91.709 36.0002 85.2129 29.2532 85.2129 20.718L85.2227 20.6985V20.6184C85.2227 12.1732 91.5891 5.25721 100.714 5.25708Z" fill="white"/>
<path fill-rule="evenodd" clip-rule="evenodd" d="M72.75 5.77661C76.1479 5.77668 78.8166 6.70653 80.5156 8.40552C81.8747 9.76468 82.5537 11.4137 82.5537 13.4524V13.5325C82.5537 16.8805 80.7652 18.7494 78.6465 19.9387L78.6562 19.9592C82.0943 21.2685 84.2129 23.2674 84.2129 27.2551V27.345C84.2128 32.7717 79.7958 35.4904 73.0898 35.4905H63.5146L58.957 30.9329V5.77661H72.75ZM65.3242 23.2073V29.7434H73.0898C75.978 29.7433 77.7168 28.7236 77.7168 26.5149V26.4358C77.7168 24.437 76.2378 23.2074 72.8799 23.2073H65.3242ZM65.3242 17.7698H71.3506C74.2288 17.7697 76.0575 16.8407 76.0576 14.6321V14.552C76.0576 12.5932 74.5288 11.4935 71.7705 11.4934H65.3242V17.7698Z" fill="white"/>
<path d="M35.6904 7.65552L58.9473 30.9124V35.47H54.3896L35.6904 16.7805V35.47H29.2441V5.75708H33.8008L35.6904 7.65552Z" fill="white"/>
</svg>
